<svg xmlns="http://www.w3.org/2000/svg" viewBox="0 0 500 500"><g id="freepik--background-complete--inject-343"><rect y="382.4" width="500" height="0.25" style="fill:#e6e6e6"></rect><rect x="101.17" y="392.99" width="34.4" height="0.25" style="fill:#e6e6e6"></rect><rect x="74.48" y="393.11" width="19.36" height="0.25" style="fill:#e6e6e6"></rect><rect x="175" y="392.53" width="39.24" height="0.25" style="fill:#e6e6e6"></rect><rect x="198.78" y="388.97" width="115.78" height="0.25" style="fill:#e6e6e6"></rect><rect x="360.68" y="389.1" width="52.99" height="0.25" style="fill:#e6e6e6"></rect><path d="M237,337.8H43.91a5.71,5.71,0,0,1-5.7-5.71V60.66A5.71,5.71,0,0,1,43.91,55H237a5.71,5.71,0,0,1,5.71,5.71V332.09A5.71,5.71,0,0,1,237,337.8ZM43.91,55.2a5.46,5.46,0,0,0-5.45,5.46V332.09a5.46,5.46,0,0,0,5.45,5.46H237a5.47,5.47,0,0,0,5.46-5.46V60.66A5.47,5.47,0,0,0,237,55.2Z" style="fill:#e6e6e6"></path><path d="M453.31,337.8H260.21a5.72,5.72,0,0,1-5.71-5.71V60.66A5.72,5.72,0,0,1,260.21,55h193.1A5.71,5.71,0,0,1,459,60.66V332.09A5.71,5.71,0,0,1,453.31,337.8ZM260.21,55.2a5.47,5.47,0,0,0-5.46,5.46V332.09a5.47,5.47,0,0,0,5.46,5.46h193.1a5.47,5.47,0,0,0,5.46-5.46V60.66a5.47,5.47,0,0,0-5.46-5.46Z" style="fill:#e6e6e6"></path><rect x="175" y="84.98" width="256.53" height="115.71" style="fill:#e0e0e0"></rect><rect x="177.54" y="84.98" width="259.43" height="115.71" style="fill:#f5f5f5"></rect><rect x="175" y="200.69" width="256.53" height="10.11" style="fill:#e0e0e0"></rect><rect x="186.61" y="200.69" width="259.43" height="10.11" style="fill:#f5f5f5"></rect><rect x="257.02" y="20.74" width="100.48" height="244.19" transform="translate(450.09 -164.42) rotate(90)" style="fill:#fafafa"></rect><polygon points="249.78 193.07 294.49 92.59 340.24 92.59 295.54 193.07 249.78 193.07" style="fill:#fff"></polygon><path d="M188.69,176.28a.55.55,0,0,1-.55-.54V97.55a.55.55,0,0,1,.55-.54.54.54,0,0,1,.54.54v78.19A.54.54,0,0,1,188.69,176.28Z" style="fill:#e6e6e6"></path><polygon points="312.74 193.07 357.44 92.59 373.27 92.59 328.56 193.07 312.74 193.07" style="fill:#fff"></polygon><rect x="378.63" y="142.35" width="100.48" height="0.97" transform="translate(571.7 -286.03) rotate(90)" style="fill:#e6e6e6"></rect><polygon points="438.77 100.27 182.24 100.27 181.54 95.56 438.07 95.56 438.77 100.27" style="fill:#e0e0e0"></polygon><polygon points="438.77 108.06 182.24 108.06 181.54 103.34 438.07 103.34 438.77 108.06" style="fill:#e0e0e0"></polygon><polygon points="438.77 115.85 182.24 115.85 181.54 111.14 438.07 111.14 438.77 115.85" style="fill:#e0e0e0"></polygon><polygon points="438.77 123.64 182.24 123.64 181.54 118.92 438.07 118.92 438.77 123.64" style="fill:#e0e0e0"></polygon><polygon points="438.77 131.43 182.24 131.43 181.54 126.71 438.07 126.71 438.77 131.43" style="fill:#e0e0e0"></polygon><polygon points="438.77 139.22 182.24 139.22 181.54 134.5 438.07 134.5 438.77 139.22" style="fill:#e0e0e0"></polygon><path d="M359.42,174.67c7.46,1,12.08-15.19-4.41-28.93C355.9,161.64,346.4,172.88,359.42,174.67Z" style="fill:#f0f0f0"></path><path d="M364.12,184.93c10.82-7.59,3.42-34.1-30.09-32.18C348.53,172.26,345.25,198.15,364.12,184.93Z" style="fill:#e0e0e0"></path><path d="M360.3,184.75c-7.2-7.75,3.05-27.25,28.93-20.13C374.62,177.46,372.85,198.26,360.3,184.75Z" style="fill:#e0e0e0"></path><polygon points="349.16 200.69 371.4 200.69 373.08 185.9 347.48 185.9 349.16 200.69" style="fill:#ebebeb"></polygon><rect x="345.82" y="185.28" width="28.92" height="3.26" transform="translate(720.56 373.82) rotate(180)" style="fill:#ebebeb"></rect><path d="M239.53,181.89s1.12,18.87,44,18.87,44-18.87,44-18.87Z" style="fill:#e0e0e0"></path><rect x="71.54" y="264.57" width="27.32" height="112.52" style="fill:#e6e6e6"></rect><rect x="76.78" y="377.09" width="219.83" height="5.31" style="fill:#e6e6e6"></rect><rect x="98.86" y="264.57" width="203" height="112.52" transform="translate(400.71 641.66) rotate(180)" style="fill:#fafafa"></rect><rect x="109.6" y="307.09" width="181.52" height="27.48" transform="translate(400.71 641.66) rotate(180)" style="fill:#e6e6e6"></rect><rect x="109.6" y="339.58" width="181.52" height="27.48" transform="translate(400.71 706.65) rotate(180)" style="fill:#e6e6e6"></rect><path d="M254.51,310.1H146.2a1.89,1.89,0,0,1-1.89-1.88h0a1.89,1.89,0,0,1,1.89-1.89H254.51a1.89,1.89,0,0,1,1.89,1.89h0A1.89,1.89,0,0,1,254.51,310.1Z" style="fill:#fafafa"></path><rect x="109.6" y="274.6" width="181.52" height="27.48" transform="translate(400.71 576.67) rotate(180)" style="fill:#e6e6e6"></rect><path d="M254.51,277.61H146.2a1.89,1.89,0,0,1-1.89-1.89h0a1.89,1.89,0,0,1,1.89-1.88H254.51a1.89,1.89,0,0,1,1.89,1.88h0A1.89,1.89,0,0,1,254.51,277.61Z" style="fill:#fafafa"></path><path d="M254.51,342.6H146.2a1.89,1.89,0,0,1-1.89-1.89h0a1.89,1.89,0,0,1,1.89-1.88H254.51a1.89,1.89,0,0,1,1.89,1.88h0A1.89,1.89,0,0,1,254.51,342.6Z" style="fill:#fafafa"></path><rect x="98.86" y="255.33" width="206.64" height="9.24" style="fill:#e6e6e6"></rect><rect x="67.72" y="255.33" width="31.14" height="9.24" transform="translate(166.58 519.91) rotate(180)" style="fill:#e0e0e0"></rect><rect x="66.56" y="110.23" width="65.49" height="71.91" style="fill:#e0e0e0"></rect><path d="M124,113.41a.53.53,0,0,1-.27-.08c-.16-.09-15.57-9.26-20.42-9.26s-19.55,9.16-19.69,9.25a.54.54,0,1,1-.58-.92c.61-.38,15.11-9.42,20.27-9.42s20.33,9,21,9.41a.55.55,0,0,1-.28,1Z" style="fill:#e0e0e0"></path><rect x="71.49" y="110.23" width="67.64" height="71.91" style="fill:#f5f5f5"></rect><rect x="75.03" y="118.03" width="60.58" height="56.31" transform="translate(251.5 40.87) rotate(90)" style="fill:#fff"></rect><path d="M119,160.43H91.61a.54.54,0,0,1-.54-.54V132.48a.54.54,0,0,1,.54-.54H119a.54.54,0,0,1,.54.54v27.41A.54.54,0,0,1,119,160.43Zm-26.87-1.09h26.32V133H92.15Z" style="fill:#f5f5f5"></path><polygon points="96.41 137.28 114.22 155.09 114.22 137.28 96.41 137.28" style="fill:#f5f5f5"></polygon><rect x="327.35" y="336.36" width="38.52" height="46.16" transform="translate(693.23 718.89) rotate(180)" style="fill:#e6e6e6"></rect><polygon points="327.35 336.36 365.87 336.36 358.14 322.59 319.62 322.59 327.35 336.36" style="fill:#e6e6e6"></polygon><polygon points="403.43 322.59 441.95 322.59 434.22 336.36 395.7 336.36 403.43 322.59" style="fill:#f0f0f0"></polygon><rect x="365.87" y="336.36" width="68.34" height="46.16" style="fill:#fafafa"></rect><rect x="365.33" y="351.61" width="15.66" height="15.66" style="fill:#e6e6e6"></rect></g><g id="freepik--Shadow--inject-343"><ellipse cx="250" cy="416.24" rx="193.89" ry="11.32" style="fill:#f5f5f5"></ellipse></g><g id="freepik--Statistics--inject-343"><path d="M99.83,348.48c15.94,24,63.05,27.71,83.06,13.38,28.4-20.34,26.83-74.1,56.33-93.15,54.24-35,120.52,61.12,162.45-34.38V412.78H99.83Z" style="fill:#407BFF;opacity:0.2"></path><path d="M150.85,370.69a84.54,84.54,0,0,1-15.24-1.39c-16.48-3-29.32-10.33-36.13-20.58a.43.43,0,0,1,.71-.47c6.59,9.91,19.55,17.28,35.57,20.21,18,3.3,36.38.57,46.88-6.95,13.84-9.91,20.65-28.18,27.23-45.85,6.87-18.45,14-37.53,29.12-47.31,22.36-14.44,46.82-6.73,70.49.72,34.54,10.89,67.18,21.17,91.8-34.91a.43.43,0,0,1,.78.34c-11.35,25.84-25,39.51-42.91,43-15.8,3.1-32.38-2.12-49.93-7.65-23.47-7.39-47.75-15-69.77-.81-14.9,9.62-22,28.56-28.79,46.89-6.62,17.79-13.48,36.18-27.52,46.25C175.46,367.7,163.65,370.69,150.85,370.69Z" style="fill:#407BFF"></path><rect x="82.05" y="325.78" width="42.79" height="87" style="fill:#407BFF"></rect><rect x="82.05" y="325.78" width="42.79" height="87" style="opacity:0.30000000000000004"></rect><rect x="152.49" y="353.67" width="42.79" height="59.11" style="fill:#407BFF"></rect><rect x="152.49" y="353.67" width="42.79" height="59.11" style="opacity:0.30000000000000004"></rect><rect x="222.93" y="303.73" width="42.79" height="109.05" style="fill:#407BFF"></rect><rect x="222.93" y="303.73" width="42.79" height="109.05" style="opacity:0.30000000000000004"></rect><rect x="293.36" y="243.81" width="42.79" height="168.97" style="fill:#407BFF"></rect><rect x="293.36" y="243.81" width="42.79" height="168.97" style="opacity:0.30000000000000004"></rect><rect x="363.8" y="160.79" width="42.79" height="251.99" style="fill:#407BFF"></rect><rect x="363.8" y="160.79" width="42.79" height="251.99" style="opacity:0.30000000000000004"></rect><rect x="93.41" y="325.78" width="42.79" height="87" style="fill:#407BFF"></rect><rect x="93.41" y="325.78" width="42.79" height="87" style="opacity:0.1"></rect><rect x="163.85" y="353.67" width="42.79" height="59.11" style="fill:#407BFF"></rect><rect x="163.85" y="353.67" width="42.79" height="59.11" style="opacity:0.1"></rect><rect x="234.28" y="303.73" width="42.79" height="109.05" style="fill:#407BFF"></rect><rect x="234.28" y="303.73" width="42.79" height="109.05" style="opacity:0.1"></rect><rect x="304.72" y="243.81" width="42.79" height="168.97" style="fill:#407BFF"></rect><rect x="304.72" y="243.81" width="42.79" height="168.97" style="opacity:0.1"></rect><rect x="375.16" y="160.79" width="42.79" height="251.99" style="fill:#407BFF"></rect><rect x="375.16" y="160.79" width="42.79" height="251.99" style="opacity:0.1"></rect><path d="M329.74,196.13A14.66,14.66,0,0,0,309,216.86l10.37,10.36,10.36-10.37A14.65,14.65,0,0,0,329.74,196.13Z" style="fill:#407BFF"></path><path d="M329.74,196.13A14.66,14.66,0,0,0,309,216.86l10.37,10.36,10.36-10.37A14.65,14.65,0,0,0,329.74,196.13Z" style="opacity:0.1"></path></g></svg>