<svg xmlns="http://www.w3.org/2000/svg" viewBox="0 0 500 500"><g id="freepik--Shadow--inject-39"><ellipse id="freepik--path--inject-39" cx="250" cy="416.24" rx="193.89" ry="11.32" style="fill:#f5f5f5"></ellipse></g><g id="freepik--Clock--inject-39"><circle cx="194.31" cy="234.84" r="105.34" transform="translate(-109.14 206.18) rotate(-45)" style="fill:#6D95E9"></circle><circle cx="194.31" cy="234.84" r="99.34" transform="translate(-109.14 206.18) rotate(-45)" style="fill:#fff;opacity:0.4"></circle><path d="M291.25,234.84a97,97,0,1,1-49.77-84.65A97.05,97.05,0,0,1,291.25,234.84Z" style="fill:#fff;opacity:0.7000000000000001"></path><path d="M194.31,129.5A105.34,105.34,0,1,0,299.66,234.84,105.34,105.34,0,0,0,194.31,129.5Zm0,208.57A103.24,103.24,0,1,1,297.55,234.84,103.23,103.23,0,0,1,194.31,338.07Z" style="isolation:isolate;opacity:0.2"></path><path d="M241.48,150.19l-47.17,85.38V137.91A96.15,96.15,0,0,1,241.48,150.19Z" style="fill:#6D95E9"></path><path d="M241.48,150.19l-47.17,85.38V137.91A96.15,96.15,0,0,1,241.48,150.19Z" style="fill:#fff;opacity:0.5"></path><g style="opacity:0.7000000000000001"><path d="M197.44,143.93,199,144l-.44,7.08,4.39.27-.09,1.32-5.94-.37Z" style="fill:#fff"></path><path d="M203.06,149l.68-4.7,1.55.23-.68,4.63c-.25,1.71.41,2.56,1.76,2.76s2.21-.43,2.46-2.14l.68-4.64,1.52.23-.69,4.69c-.35,2.42-1.91,3.54-4.18,3.21S202.7,151.44,203.06,149Z" style="fill:#fff"></path><path d="M219.87,147.49l-2,8.16-1.25-.31-3.13-6.64-1.37,5.52-1.5-.37,2-8.16,1.25.31,3.13,6.64,1.37-5.53Z" style="fill:#fff"></path><path d="M219.52,151.77a4.55,4.55,0,0,1,8.36-.15l-1.27.56a3,3,0,0,0-1.79-1.67,3,3,0,1,0-2,5.57,2.93,2.93,0,0,0,2.45-.19l.64,1.24a4.56,4.56,0,0,1-6.42-5.36Z" style="fill:#fff"></path><path d="M235.93,153.92l-3.54,7.62-1.42-.66,1.52-3.26-3.94-1.83L227,159.05l-1.41-.66,3.54-7.62,1.41.66-1.46,3.15,3.94,1.83,1.46-3.15Z" style="fill:#fff"></path></g><path d="M194.32,238.44a2.42,2.42,0,0,1-.38,0,3.6,3.6,0,0,1-3.21-3.95L197,173.9a3.6,3.6,0,1,1,7.16.75l-6.29,60.56A3.61,3.61,0,0,1,194.32,238.44Z" style="fill:#263238"></path><path d="M199.36,187.47h-.12a1.2,1.2,0,0,1-1.07-1.32l1.24-12a1.2,1.2,0,0,1,2.39.25l-1.24,12A1.21,1.21,0,0,1,199.36,187.47Z" style="fill:#6D95E9"></path><g style="opacity:0.2"><path d="M194.32,238.44a2.42,2.42,0,0,1-.38,0,3.6,3.6,0,0,1-3.21-3.95L197,173.9a3.6,3.6,0,1,1,7.16.75l-6.29,60.56A3.61,3.61,0,0,1,194.32,238.44Z" style="fill:#fff"></path><path d="M199.36,187.47h-.12a1.2,1.2,0,0,1-1.07-1.32l1.24-12a1.2,1.2,0,0,1,2.39.25l-1.24,12A1.21,1.21,0,0,1,199.36,187.47Z" style="fill:#fff"></path></g><path d="M194.31,154.38a.5.5,0,0,1-.5-.5V142.8a.51.51,0,0,1,.5-.5.5.5,0,0,1,.5.5v11.08A.5.5,0,0,1,194.31,154.38Z" style="fill:#263238"></path><path d="M194.31,327.38a.51.51,0,0,1-.5-.5V315.79a.51.51,0,0,1,.5-.5.5.5,0,0,1,.5.5v11.09A.5.5,0,0,1,194.31,327.38Z" style="fill:#263238"></path><path d="M286.35,235.34H275.27a.5.5,0,0,1,0-1h11.08a.5.5,0,0,1,0,1Z" style="fill:#263238"></path><path d="M113.36,235.34H102.28a.5.5,0,0,1,0-1h11.08a.5.5,0,0,1,0,1Z" style="fill:#263238"></path><path d="M154.89,164.63a.49.49,0,0,1-.43-.26l-5.4-9.68a.5.5,0,0,1,.19-.68.51.51,0,0,1,.68.2l5.4,9.68a.51.51,0,0,1-.19.68A.54.54,0,0,1,154.89,164.63Z" style="fill:#263238"></path><path d="M239.13,315.73a.53.53,0,0,1-.44-.26l-5.39-9.68a.5.5,0,0,1,.19-.68.5.5,0,0,1,.68.19l5.4,9.68a.5.5,0,0,1-.2.68A.42.42,0,0,1,239.13,315.73Z" style="fill:#263238"></path><path d="M113.93,280.16a.51.51,0,0,1-.44-.26.49.49,0,0,1,.19-.68l9.68-5.4a.51.51,0,0,1,.68.2.5.5,0,0,1-.19.68l-9.68,5.39A.44.44,0,0,1,113.93,280.16Z" style="fill:#263238"></path><path d="M265,195.92a.49.49,0,0,1-.43-.26.5.5,0,0,1,.19-.68l9.68-5.39a.5.5,0,0,1,.68.19.51.51,0,0,1-.19.68l-9.68,5.39A.47.47,0,0,1,265,195.92Z" style="fill:#263238"></path><path d="M233.73,164.63a.53.53,0,0,1-.24-.06.5.5,0,0,1-.19-.68l5.39-9.68a.51.51,0,0,1,.68-.2.5.5,0,0,1,.2.68l-5.4,9.68A.49.49,0,0,1,233.73,164.63Z" style="fill:#263238"></path><path d="M149.5,315.73a.45.45,0,0,1-.25-.07.49.49,0,0,1-.19-.68l5.4-9.68a.5.5,0,0,1,.87.49l-5.4,9.68A.51.51,0,0,1,149.5,315.73Z" style="fill:#263238"></path><path d="M274.7,280.16a.44.44,0,0,1-.24-.07l-9.68-5.39a.5.5,0,0,1-.19-.68.5.5,0,0,1,.68-.2l9.68,5.4a.5.5,0,0,1,.19.68A.51.51,0,0,1,274.7,280.16Z" style="fill:#263238"></path><path d="M123.6,195.92a.44.44,0,0,1-.24-.07l-9.68-5.39a.5.5,0,0,1,.49-.87l9.68,5.39a.5.5,0,0,1,.19.68A.49.49,0,0,1,123.6,195.92Z" style="fill:#263238"></path><path d="M194.31,238.44a3.59,3.59,0,0,1-3.14-5.35l36.69-66a3.6,3.6,0,1,1,6.29,3.5l-36.69,66A3.61,3.61,0,0,1,194.31,238.44Z" style="fill:#263238"></path><path d="M199.72,234.84a5.41,5.41,0,1,1-5.41-5.41A5.41,5.41,0,0,1,199.72,234.84Z" style="fill:#263238"></path><path d="M194.31,237.85a3,3,0,1,1,3-3A3,3,0,0,1,194.31,237.85Z" style="fill:#fff;opacity:0.2"></path><path d="M224.67,181.47a1.25,1.25,0,0,1-.58-.15,1.2,1.2,0,0,1-.47-1.63L230,168.31a1.2,1.2,0,1,1,2.09,1.16l-6.33,11.39A1.2,1.2,0,0,1,224.67,181.47Z" style="fill:#6D95E9"></path></g></svg>