<svg xmlns="http://www.w3.org/2000/svg" viewBox="0 0 500 500"><g id="freepik--background-complete--inject-281"><rect y="382.4" width="500" height="0.25" style="fill:#ebebeb"></rect><rect x="416.78" y="398.49" width="33.12" height="0.25" style="fill:#ebebeb"></rect><rect x="322.53" y="401.21" width="8.69" height="0.25" style="fill:#ebebeb"></rect><rect x="396.59" y="389.21" width="19.19" height="0.25" style="fill:#ebebeb"></rect><rect x="52.46" y="390.89" width="43.19" height="0.25" style="fill:#ebebeb"></rect><rect x="104.56" y="390.89" width="6.33" height="0.25" style="fill:#ebebeb"></rect><rect x="131.47" y="395.11" width="93.68" height="0.25" style="fill:#ebebeb"></rect><path d="M237,337.8H43.91a5.71,5.71,0,0,1-5.7-5.71V60.66A5.71,5.71,0,0,1,43.91,55H237a5.71,5.71,0,0,1,5.71,5.71V332.09A5.71,5.71,0,0,1,237,337.8ZM43.91,55.2a5.46,5.46,0,0,0-5.45,5.46V332.09a5.46,5.46,0,0,0,5.45,5.46H237a5.47,5.47,0,0,0,5.46-5.46V60.66A5.47,5.47,0,0,0,237,55.2Z" style="fill:#ebebeb"></path><path d="M453.31,337.8H260.21a5.72,5.72,0,0,1-5.71-5.71V60.66A5.72,5.72,0,0,1,260.21,55h193.1A5.71,5.71,0,0,1,459,60.66V332.09A5.71,5.71,0,0,1,453.31,337.8ZM260.21,55.2a5.47,5.47,0,0,0-5.46,5.46V332.09a5.47,5.47,0,0,0,5.46,5.46h193.1a5.47,5.47,0,0,0,5.46-5.46V60.66a5.47,5.47,0,0,0-5.46-5.46Z" style="fill:#ebebeb"></path><path d="M411.48,347.81s-7.68-15,1.1-29.86,11.32-18.32,5.72-21.36-8.16,11.86-8.16,11.86-4.72-10.25-.82-21,6.34-28.2,1-30.07-1,21.79-5.64,29.86c0,0-3.87-9-4.51-17.6s.36-22.37-3.84-25.9-6.9-1.08-2.77,17.93a179,179,0,0,1,4.1,34.46s-9.12-24.94-15.24-25.66-6.11,7.35-.87,14.35,15.34,19.56,17,26c0,0-10-18.76-19-13s7.84,17.09,15.35,21.18,12.71,29.78,12.71,29.78Z" style="fill:#e0e0e0"></path><path d="M405.41,354s7.49-15.14-1.49-29.85-11.57-18.16-6-21.27,8.32,11.75,8.32,11.75,4.58-10.32.54-21-6.71-28.11-1.42-30.05,1.31,21.78,6,29.78c0,0,3.76-9,4.28-17.65s-.66-22.37,3.5-25.95,6.87-1.18,3,17.88a179.67,179.67,0,0,0-3.64,34.52s8.79-25.06,14.9-25.87,6.21,7.27,1.06,14.34-15.08,19.76-16.65,26.24c0,0,9.76-18.9,18.84-13.27s-7.61,17.19-15.06,21.39-12.32,29.94-12.32,29.94Z" style="fill:#e6e6e6"></path><polygon points="439.93 343.19 378.11 343.19 383.11 382.87 434.93 382.87 439.93 343.19" style="fill:#f0f0f0"></polygon><rect x="217.04" y="92.06" width="112.62" height="124.62" style="fill:#e9e9e9"></rect><rect x="222" y="97" width="103" height="115" style="fill:#f4f4f4"></rect><polygon points="251.11 97 222 206.02 222 147 235.32 97 251.11 97" style="fill:#fff"></polygon><polygon points="264.12 97 233.42 212 227.63 212 258.33 97 264.12 97" style="fill:#fff"></polygon><polygon points="325 128.36 325 187.39 318.48 212 302.69 212 325 128.36" style="fill:#fff"></polygon><rect x="271.35" y="92.06" width="4" height="124.62" style="fill:#e9e9e9"></rect><rect x="219" y="117.35" width="108.5" height="4" style="fill:#e9e9e9"></rect><rect x="63.04" y="92.06" width="112.62" height="124.62" style="fill:#e9e9e9"></rect><rect x="68" y="97" width="103" height="115" style="fill:#f4f4f4"></rect><polygon points="97.11 97 68 206.02 68 147 81.32 97 97.11 97" style="fill:#fff"></polygon><polygon points="110.12 97 79.42 212 73.63 212 104.33 97 110.12 97" style="fill:#fff"></polygon><polygon points="171 128.36 171 187.39 164.48 212 148.69 212 171 128.36" style="fill:#fff"></polygon><rect x="117.35" y="92.06" width="4" height="124.62" style="fill:#e9e9e9"></rect><rect x="65" y="117.35" width="108.5" height="4" style="fill:#e9e9e9"></rect></g><g id="freepik--Shadow--inject-281"><ellipse id="freepik--path--inject-281" cx="250" cy="416.24" rx="193.89" ry="11.32" style="fill:#f5f5f5"></ellipse></g><g id="freepik--exams-sheet--inject-281"><path d="M381.66,382.87H228.17a6.52,6.52,0,0,1-6.59-7.16l19.35-248.24a7.87,7.87,0,0,1,7.71-7.16H402.12a6.53,6.53,0,0,1,6.6,7.16L389.37,375.71A7.88,7.88,0,0,1,381.66,382.87Z" style="fill:#2e353a"></path><path d="M381.66,382.87H228.17a6.52,6.52,0,0,1-6.59-7.16l19.35-248.24a7.87,7.87,0,0,1,7.71-7.16H402.12a6.53,6.53,0,0,1,6.6,7.16L389.37,375.71A7.88,7.88,0,0,1,381.66,382.87Z" style="fill:#fff;opacity:0.2"></path><path d="M360.87,136.54h-73.5a2.28,2.28,0,0,1-2.31-2.5l1.13-14.51a2.76,2.76,0,0,1,2.7-2.51h73.5a2.28,2.28,0,0,1,2.3,2.51L363.56,134A2.75,2.75,0,0,1,360.87,136.54Z" style="fill:#407BFF"></path><path d="M360.87,136.54h-73.5a2.28,2.28,0,0,1-2.31-2.5l1.13-14.51a2.76,2.76,0,0,1,2.7-2.51h73.5a2.28,2.28,0,0,1,2.3,2.51L363.56,134A2.75,2.75,0,0,1,360.87,136.54Z" style="opacity:0.2;isolation:isolate"></path><path d="M331,121.53h-11.5l.45-5.76a6.32,6.32,0,0,1,6.19-5.75h0a5.25,5.25,0,0,1,5.31,5.75Z" style="fill:#407BFF"></path><path d="M331,121.53h-11.5l.45-5.76a6.32,6.32,0,0,1,6.19-5.75h0a5.25,5.25,0,0,1,5.31,5.75Z" style="fill:#fff;opacity:0.4"></path><polygon points="379.59 372.5 231.85 372.5 250.71 130.67 398.44 130.67 379.59 372.5" style="fill:#fff"></polygon><path d="M347.2,143.33H300a5.38,5.38,0,0,1-5.43-5.9l.6-7.68a6.49,6.49,0,0,1,6.35-5.9h47.21a5.39,5.39,0,0,1,5.44,5.9l-.6,7.68A6.51,6.51,0,0,1,347.2,143.33Zm-45.86-17.47a4.28,4.28,0,0,0-4.19,3.89l-.6,7.68a3.55,3.55,0,0,0,3.58,3.9h47.22a4.29,4.29,0,0,0,4.2-3.9l.6-7.68a3.56,3.56,0,0,0-3.59-3.89Z" style="fill:#407BFF"></path><g style="opacity:0.4"><path d="M347.2,143.33H300a5.38,5.38,0,0,1-5.43-5.9l.6-7.68a6.49,6.49,0,0,1,6.35-5.9h47.21a5.39,5.39,0,0,1,5.44,5.9l-.6,7.68A6.51,6.51,0,0,1,347.2,143.33Zm-45.86-17.47a4.28,4.28,0,0,0-4.19,3.89l-.6,7.68a3.55,3.55,0,0,0,3.58,3.9h47.22a4.29,4.29,0,0,0,4.2-3.9l.6-7.68a3.56,3.56,0,0,0-3.59-3.89Z" style="fill:#fff"></path></g><path d="M344.76,128.28h-40a1.25,1.25,0,0,1-1.27-1.37l.31-4a1.52,1.52,0,0,1,1.49-1.37h40a1.24,1.24,0,0,1,1.26,1.37l-.31,4A1.51,1.51,0,0,1,344.76,128.28Z" style="fill:#407BFF"></path><polygon points="378.63 166 266.63 166 267.58 153.78 379.58 153.78 378.63 166" style="fill:#407BFF"></polygon><polygon points="333.3 183.01 258.74 183.01 258.99 179.86 333.55 179.86 333.3 183.01" style="fill:#407BFF"></polygon><polygon points="332.6 192.11 258.04 192.11 258.28 188.95 332.84 188.95 332.6 192.11" style="fill:#407BFF"></polygon><polygon points="331.89 201.21 257.33 201.21 257.57 198.05 332.13 198.05 331.89 201.21" style="fill:#407BFF"></polygon><polygon points="331.18 210.3 256.62 210.3 256.86 207.15 331.42 207.15 331.18 210.3" style="fill:#407BFF"></polygon><polygon points="380.1 210.3 349.68 210.3 352.06 179.86 382.48 179.86 380.1 210.3" style="fill:#407BFF"></polygon><path d="M371.68,191.16c.14-1.78-1.24-3-3.74-3a6.44,6.44,0,0,0-5.16,2.2l-1.92-1.45a9.41,9.41,0,0,1,7.45-3.12c4,0,6.46,1.87,6.21,5-.36,4.65-5.31,5-5.59,8.61h-2.79C366.49,195,371.43,194.36,371.68,191.16Zm-6.28,12.73a1.92,1.92,0,0,1,2-1.78,1.59,1.59,0,0,1,1.64,1.78,1.93,1.93,0,0,1-1.92,1.78A1.61,1.61,0,0,1,365.4,203.89Z" style="fill:#fff"></path><polygon points="329.71 229.08 255.15 229.08 255.4 225.92 329.96 225.92 329.71 229.08" style="fill:#407BFF"></polygon><polygon points="329 238.17 254.44 238.17 254.69 235.02 329.25 235.02 329 238.17" style="fill:#407BFF"></polygon><polygon points="328.3 247.27 253.74 247.27 253.98 244.12 328.54 244.12 328.3 247.27" style="fill:#407BFF"></polygon><polygon points="327.59 256.37 253.03 256.37 253.27 253.21 327.83 253.21 327.59 256.37" style="fill:#407BFF"></polygon><polygon points="376.51 256.37 346.09 256.37 348.46 225.92 378.88 225.92 376.51 256.37" style="fill:#407BFF"></polygon><path d="M368.09,237.23c.14-1.79-1.24-3-3.74-3a6.44,6.44,0,0,0-5.16,2.2L357.27,235a9.38,9.38,0,0,1,7.45-3.12c4,0,6.46,1.87,6.21,5-.36,4.65-5.31,5-5.59,8.61h-2.79C362.89,241,367.84,240.43,368.09,237.23ZM361.81,250a1.92,1.92,0,0,1,1.95-1.79A1.59,1.59,0,0,1,365.4,250a1.94,1.94,0,0,1-1.92,1.78A1.61,1.61,0,0,1,361.81,250Z" style="fill:#fff"></path><polygon points="326.12 275.14 251.56 275.14 251.81 271.99 326.37 271.99 326.12 275.14" style="fill:#407BFF"></polygon><polygon points="325.41 284.24 250.85 284.24 251.1 281.08 325.66 281.08 325.41 284.24" style="fill:#407BFF"></polygon><polygon points="324.7 293.34 250.15 293.34 250.39 290.18 324.95 290.18 324.7 293.34" style="fill:#407BFF"></polygon><polygon points="324 302.43 249.44 302.43 249.68 299.28 324.24 299.28 324 302.43" style="fill:#407BFF"></polygon><polygon points="372.92 302.43 342.5 302.43 344.87 271.99 375.29 271.99 372.92 302.43" style="fill:#407BFF"></polygon><path d="M364.5,283.29c.14-1.78-1.24-3-3.75-3a6.43,6.43,0,0,0-5.15,2.2L353.68,281a9.38,9.38,0,0,1,7.45-3.12c4,0,6.45,1.86,6.21,4.95-.36,4.66-5.31,5-5.59,8.61H359C359.3,287.11,364.25,286.49,364.5,283.29ZM358.22,296a1.92,1.92,0,0,1,1.95-1.78,1.59,1.59,0,0,1,1.64,1.78,1.93,1.93,0,0,1-1.92,1.78A1.6,1.6,0,0,1,358.22,296Z" style="fill:#fff"></path><polygon points="322.53 321.21 247.97 321.21 248.22 318.05 322.78 318.05 322.53 321.21" style="fill:#407BFF"></polygon><polygon points="321.82 330.31 247.26 330.31 247.51 327.15 322.07 327.15 321.82 330.31" style="fill:#407BFF"></polygon><polygon points="321.11 339.4 246.55 339.4 246.8 336.25 321.36 336.25 321.11 339.4" style="fill:#407BFF"></polygon><polygon points="320.4 348.5 245.84 348.5 246.09 345.34 320.65 345.34 320.4 348.5" style="fill:#407BFF"></polygon><polygon points="369.33 348.5 338.91 348.5 341.28 318.05 371.7 318.05 369.33 348.5" style="fill:#407BFF"></polygon><path d="M360.91,329.36c.14-1.79-1.24-3-3.75-3a6.42,6.42,0,0,0-5.15,2.2l-1.92-1.45a9.38,9.38,0,0,1,7.45-3.12c4,0,6.45,1.87,6.21,5-.36,4.65-5.31,5-5.59,8.61h-2.79C355.71,333.17,360.66,332.56,360.91,329.36Zm-6.28,12.73a1.92,1.92,0,0,1,1.95-1.79,1.59,1.59,0,0,1,1.64,1.79,1.94,1.94,0,0,1-1.92,1.78A1.61,1.61,0,0,1,354.63,342.09Z" style="fill:#fff"></path><polygon points="378.63 166 266.63 166 267.58 153.78 379.58 153.78 378.63 166" style="fill:#fff;opacity:0.7000000000000001"></polygon><polygon points="333.3 183.01 258.74 183.01 258.99 179.86 333.55 179.86 333.3 183.01" style="fill:#fff;opacity:0.7000000000000001"></polygon><polygon points="332.6 192.11 258.04 192.11 258.28 188.95 332.84 188.95 332.6 192.11" style="fill:#fff;opacity:0.7000000000000001"></polygon><polygon points="331.89 201.21 257.33 201.21 257.57 198.05 332.13 198.05 331.89 201.21" style="fill:#fff;opacity:0.7000000000000001"></polygon><polygon points="331.18 210.3 256.62 210.3 256.86 207.15 331.42 207.15 331.18 210.3" style="fill:#fff;opacity:0.7000000000000001"></polygon><polygon points="380.1 210.3 349.68 210.3 352.06 179.86 382.48 179.86 380.1 210.3" style="fill:#fff;opacity:0.7000000000000001"></polygon><polygon points="329.71 229.08 255.15 229.08 255.4 225.92 329.96 225.92 329.71 229.08" style="fill:#fff;opacity:0.7000000000000001"></polygon><polygon points="329 238.17 254.44 238.17 254.69 235.02 329.25 235.02 329 238.17" style="fill:#fff;opacity:0.7000000000000001"></polygon><polygon points="328.3 247.27 253.74 247.27 253.98 244.12 328.54 244.12 328.3 247.27" style="fill:#fff;opacity:0.7000000000000001"></polygon><polygon points="327.59 256.37 253.03 256.37 253.27 253.21 327.83 253.21 327.59 256.37" style="fill:#fff;opacity:0.7000000000000001"></polygon><polygon points="376.51 256.37 346.09 256.37 348.46 225.92 378.88 225.92 376.51 256.37" style="fill:#fff;opacity:0.7000000000000001"></polygon><polygon points="326.12 275.14 251.56 275.14 251.81 271.99 326.37 271.99 326.12 275.14" style="fill:#fff;opacity:0.7000000000000001"></polygon><polygon points="325.41 284.24 250.85 284.24 251.1 281.08 325.66 281.08 325.41 284.24" style="fill:#fff;opacity:0.7000000000000001"></polygon><polygon points="324.7 293.34 250.15 293.34 250.39 290.18 324.95 290.18 324.7 293.34" style="fill:#fff;opacity:0.7000000000000001"></polygon><polygon points="324 302.43 249.44 302.43 249.68 299.28 324.24 299.28 324 302.43" style="fill:#fff;opacity:0.7000000000000001"></polygon><polygon points="372.92 302.43 342.5 302.43 344.87 271.99 375.29 271.99 372.92 302.43" style="fill:#fff;opacity:0.7000000000000001"></polygon><polygon points="322.53 321.21 247.97 321.21 248.22 318.05 322.78 318.05 322.53 321.21" style="fill:#fff;opacity:0.7000000000000001"></polygon><polygon points="321.82 330.31 247.26 330.31 247.51 327.15 322.07 327.15 321.82 330.31" style="fill:#fff;opacity:0.7000000000000001"></polygon><polygon points="321.11 339.4 246.55 339.4 246.8 336.25 321.36 336.25 321.11 339.4" style="fill:#fff;opacity:0.7000000000000001"></polygon><polygon points="320.4 348.5 245.84 348.5 246.09 345.34 320.65 345.34 320.4 348.5" style="fill:#fff;opacity:0.7000000000000001"></polygon><polygon points="369.33 348.5 338.91 348.5 341.28 318.05 371.7 318.05 369.33 348.5" style="fill:#fff;opacity:0.7000000000000001"></polygon></g></svg>